<?xml version="1.0" encoding="UTF-8" standalone="no"?>
<!-- Created with Inkscape (http://www.inkscape.org/) -->

<svg
   xmlns:dc="http://purl.org/dc/elements/1.1/"
   xmlns:cc="http://creativecommons.org/ns#"
   xmlns:rdf="http://www.w3.org/1999/02/22-rdf-syntax-ns#"
   xmlns:svg="http://www.w3.org/2000/svg"
   xmlns="http://www.w3.org/2000/svg"
   xmlns:xlink="http://www.w3.org/1999/xlink"
   xmlns:sodipodi="http://sodipodi.sourceforge.net/DTD/sodipodi-0.dtd"
   xmlns:inkscape="http://www.inkscape.org/namespaces/inkscape"
   width="250"
   height="251.01015"
   viewBox="0 0 66.145832 66.4131"
   version="1.1"
   id="svg8"
   inkscape:version="0.92.2 (unknown)"
   sodipodi:docname="whitecollar.svg">
  <defs
     id="defs2">
    <linearGradient
       id="linearGradient2655"
       inkscape:collect="always">
      <stop
         id="stop2651"
         offset="0"
         style="stop-color:#666666;stop-opacity:0.46" />
      <stop
         id="stop2653"
         offset="1"
         style="stop-color:#000000;stop-opacity:1" />
    </linearGradient>
    <linearGradient
       inkscape:collect="always"
       id="linearGradient2639">
      <stop
         style="stop-color:#666666;stop-opacity:1"
         offset="0"
         id="stop2635" />
      <stop
         style="stop-color:#000000;stop-opacity:1"
         offset="1"
         id="stop2637" />
    </linearGradient>
    <linearGradient
       inkscape:collect="always"
       xlink:href="#linearGradient2639"
       id="linearGradient2641"
       x1="-119.7901"
       y1="-2.3749895"
       x2="-61.897667"
       y2="-2.3749895"
       gradientUnits="userSpaceOnUse" />
    <linearGradient
       inkscape:collect="always"
       xlink:href="#linearGradient2639"
       id="linearGradient2993"
       gradientUnits="userSpaceOnUse"
       x1="-119.7901"
       y1="-2.3749895"
       x2="-61.897667"
       y2="-2.3749895"
       gradientTransform="matrix(0.52716937,0,0,0.52716937,77.289259,16.357321)" />
    <linearGradient
       inkscape:collect="always"
       xlink:href="#linearGradient2655"
       id="linearGradient2995"
       gradientUnits="userSpaceOnUse"
       x1="-66.469826"
       y1="-5.7727914"
       x2="-117.32738"
       y2="-4.0889931"
       gradientTransform="matrix(0.52716937,0,0,0.52716937,77.289259,16.357321)" />
  </defs>
  <sodipodi:namedview
     id="base"
     pagecolor="#ffffff"
     bordercolor="#666666"
     borderopacity="1.0"
     inkscape:pageopacity="0.0"
     inkscape:pageshadow="2"
     inkscape:zoom="1.4142136"
     inkscape:cx="140.71573"
     inkscape:cy="103.84035"
     inkscape:document-units="px"
     inkscape:current-layer="layer2"
     showgrid="false"
     showborder="false"
     inkscape:snap-global="false"
     fit-margin-top="0"
     fit-margin-left="0"
     fit-margin-right="0"
     fit-margin-bottom="0"
     inkscape:window-width="1366"
     inkscape:window-height="705"
     inkscape:window-x="0"
     inkscape:window-y="30"
     inkscape:window-maximized="1"
     units="px" />
  <metadata
     id="metadata5">
    <rdf:RDF>
      <cc:Work
         rdf:about="">
        <dc:format>image/svg+xml</dc:format>
        <dc:type
           rdf:resource="http://purl.org/dc/dcmitype/StillImage" />
        <dc:title></dc:title>
      </cc:Work>
    </rdf:RDF>
  </metadata>
  <g
     inkscape:groupmode="layer"
     id="layer2"
     inkscape:label="Layer 2"
     style="display:inline;opacity:1"
     transform="translate(2.93233,2.8878133)">
    <circle
       style="opacity:1;fill:#000000;fill-opacity:0;stroke:none;stroke-width:0.79374999;stroke-linecap:round;stroke-linejoin:round;stroke-miterlimit:4;stroke-dasharray:none;stroke-opacity:1"
       id="path2958"
       cx="24.695704"
       cy="16.006075"
       r="78.203064" />
    <g
       id="g3320">
      <circle
         r="33.072918"
         cy="30.185102"
         cx="30.140587"
         id="path2964"
         style="opacity:0.98999999;fill:#9b432f;fill-opacity:1;stroke:none;stroke-width:0.45263386;stroke-linecap:round;stroke-linejoin:round;stroke-miterlimit:4;stroke-dasharray:none;stroke-opacity:1" />
      <path
         inkscape:connector-curvature="0"
         id="circle2966"
         d="M 21.845872,47.321883 8.8044716,52.761612 c -0.8577678,0.357785 -1.5555661,0.701476 -2.1101852,1.007963 a 34.519594,34.519594 0 0 0 23.9965966,9.755714 34.519594,34.519594 0 0 0 22.896003,-8.743121 c -1.239612,-0.936344 -4.48919,-2.371207 -5.00794,-2.601088 L 37.188699,47.461364 Z m 26.733074,4.859197 1.232711,0.510792 c -1.18766,-0.492124 -1.4566,-0.610006 -1.232711,-0.510792 z"
         style="opacity:0.98999999;fill:#f7f4f3;fill-opacity:1;stroke:none;stroke-width:0.472433;stroke-linecap:round;stroke-linejoin:round;stroke-miterlimit:4;stroke-dasharray:none;stroke-opacity:1" />
      <path
         style="fill:#ededed;fill-opacity:1;stroke:none;stroke-width:0.13948022px;stroke-linecap:butt;stroke-linejoin:miter;stroke-opacity:1"
         d="m 22.578142,44.183628 c -0.194852,1.156198 -0.444499,2.202811 -0.73227,3.173175 1.621663,3.169403 3.675942,5.733141 5.753558,8.264203 l 3.940317,0.10461 c 1.961961,-2.743451 4.274163,-5.436869 5.648952,-8.264203 -0.220847,-0.997073 -0.441689,-1.925582 -0.662531,-3.277786 z"
         id="path2971"
         inkscape:connector-curvature="0"
         sodipodi:nodetypes="ccccccc" />
      <path
         style="fill:#e9b68b;fill-opacity:1;stroke:none;stroke-width:0.13948022px;stroke-linecap:butt;stroke-linejoin:miter;stroke-opacity:1"
         d="m 22.787365,42.091424 c 0.17453,0.01454 0.18773,1.472052 0,2.127074 -0.0846,0.2952 0.249146,0.572623 0.453308,0.802011 0.602813,0.677287 2.196815,1.604023 2.196815,1.604023 l 4.132101,2.458339 2.876779,-1.569153 1.900419,-1.255322 c 0,0 0.855111,-0.580223 1.220455,-0.941491 0.300107,-0.296762 0.916252,-0.592807 0.784576,-0.993797 -0.178842,-0.544602 -0.125055,-2.095302 0.03485,-2.144509 L 22.89195,42.161166 Z"
         id="path2973"
         inkscape:connector-curvature="0"
         sodipodi:nodetypes="cssccccssccc" />
      <path
         style="opacity:0.09306;fill:#000000;fill-opacity:1;stroke:none;stroke-width:0.13948022px;stroke-linecap:butt;stroke-linejoin:miter;stroke-opacity:1"
         d="m 43.19959,10.959165 c 0.07818,0.193972 0.152547,0.390132 0.219571,0.59034 0.221522,0.661692 0.08134,1.394511 0.06974,2.092203 -0.0087,0.524138 -0.05448,1.047344 -0.104606,1.569152 -0.183861,1.913429 -0.356224,3.834023 -0.719196,5.721685 -0.621264,3.230921 -1.641163,6.372364 -2.488851,9.551399 -0.136579,0.512211 -0.287529,1.020595 -0.418441,1.534282 -0.286147,1.122839 -0.395851,2.297187 -0.802014,3.382396 -0.368133,0.983594 -0.870905,1.923249 -1.46454,2.789604 -0.758976,1.107653 -1.748916,2.038323 -2.650122,3.033695 -0.866503,0.957042 -1.647257,2.011449 -2.650128,2.824475 -0.644164,0.522225 -1.325209,1.078796 -2.127071,1.290192 -1.135675,0.299399 -2.408478,0.269206 -3.521876,-0.10461 -0.608438,-0.20428 -1.083565,-0.696164 -1.569157,-1.115842 -0.852116,-0.736459 -1.559229,-1.62564 -2.336288,-2.440904 -0.531982,-0.558134 -1.085188,-1.097329 -1.605114,-1.666408 0.18637,0.467361 0.403379,0.92345 0.663622,1.352578 0.502724,0.828961 1.147457,1.565318 1.778374,2.301423 0.615307,0.717892 1.300374,1.37292 1.952719,2.057334 0.777059,0.815263 1.484172,1.704445 2.336294,2.440903 0.485586,0.419678 0.960713,0.911562 1.569151,1.115842 1.113403,0.373817 2.386201,0.404009 3.521876,0.10461 0.801867,-0.211396 1.482912,-0.767966 2.127076,-1.290191 0.989059,-0.813027 2.122964,-2.165754 1.91042,-2.725848 -0.892535,-2.351969 -0.72741,-3.629755 0.924143,-4.710361 0.878823,-0.575012 1.441608,-1.806011 1.809741,-2.789605 0.406158,-1.085208 0.466545,-2.062301 0.752693,-3.185139 0.130912,-0.513688 0.331178,-1.1207 0.467757,-1.632911 0.847688,-3.179034 1.81827,-6.616357 2.439534,-9.847281 0.362972,-1.887662 0.831225,-1.342569 1.015081,-3.255998 0.05013,-0.521814 0.391776,-2.475113 0.40049,-2.999251 0.0116,-0.697693 0.102471,-1.825024 -0.119056,-2.486716 -0.599307,-1.790167 -0.02799,-2.194543 -1.381821,-3.501048 z"
         id="path2975"
         inkscape:connector-curvature="0"
         sodipodi:nodetypes="ccccscccssccsccccccccccsscccscccc" />
      <path
         style="fill:#eab78c;fill-opacity:1;stroke:none;stroke-width:0.13948022px;stroke-linecap:butt;stroke-linejoin:miter;stroke-opacity:1"
         d="m 17.905555,32.013978 c 0.42473,1.648909 0.686923,3.346488 1.255322,4.951548 0.222218,0.6275 0.491696,1.244049 0.836882,1.813243 0.502724,0.828961 1.147458,1.565318 1.778374,2.301423 0.615307,0.717893 1.300379,1.37292 1.952725,2.057334 0.777058,0.815263 1.484171,1.704446 2.336293,2.440904 0.485587,0.419679 0.960714,0.911562 1.569152,1.115842 1.113397,0.373817 2.3862,0.404009 3.521876,0.10461 0.801861,-0.211396 1.482906,-0.767967 2.12707,-1.290192 1.002871,-0.813026 1.783625,-1.867432 2.650128,-2.824475 0.901207,-0.995372 1.891146,-1.926041 2.650123,-3.033695 0.593635,-0.866355 1.096412,-1.806011 1.464545,-2.789604 0.406157,-1.08521 0.515861,-2.259558 0.802009,-3.382396 0.130912,-0.513688 0.281861,-1.022073 0.41844,-1.534282 0.847689,-3.179035 1.867719,-6.320439 2.488983,-9.55136 0.362972,-1.887662 0.535209,-3.808293 0.719065,-5.721728 0.05013,-0.521808 0.09589,-1.045013 0.104606,-1.569151 0.0116,-0.697693 0.151782,-1.430511 -0.06974,-2.092203 -1.809761,-5.4058323 -7.76736,-8.5302597 -13.599319,-9.8333538 -2.340753,-0.5230206 -4.8758,-0.2360823 -7.183231,0.4184407 -2.261457,0.641486 -4.535296,1.6947968 -6.206871,3.3475255 -1.398496,1.382723 -2.298754,3.2757096 -2.859346,5.1607666 -0.551429,1.854255 -0.588985,3.861447 -0.41844,5.78843 0.13321,1.505153 0.738622,2.93043 1.115843,4.393625 0.836818,3.245951 1.709373,6.482622 2.545511,9.728748 z"
         id="path2977"
         inkscape:connector-curvature="0"
         sodipodi:nodetypes="aaaaaaaaaaaaaaaaassaaaaaa" />
      <path
         style="fill:#e8b68b;fill-opacity:1;stroke:none;stroke-width:0.13948022px;stroke-linecap:butt;stroke-linejoin:miter;stroke-opacity:1"
         d="m 15.333633,22.320102 c 0,0 -1.055008,0.551736 -1.403262,1.011232 -0.306512,0.404418 -0.441873,0.928757 -0.523052,1.429673 -0.126494,0.780543 -0.07285,1.593395 0.06974,2.371162 0.173012,0.943673 0.487811,1.87451 0.941493,2.719865 0.262741,0.489568 0.5948,0.957237 1.011232,1.325061 0.363078,0.3207 0.83636,0.619007 1.255322,0.732272 0.418963,0.113266 1.298651,0 1.298651,0 -0.797639,-3.282158 -1.724192,-6.4354 -2.650124,-9.589265 z"
         id="path2979"
         inkscape:connector-curvature="0"
         sodipodi:nodetypes="caaaaazcc" />
      <path
         sodipodi:nodetypes="caaaaaacc"
         inkscape:connector-curvature="0"
         id="path2981"
         d="m 43.674991,22.320102 c 0,0 1.16699,0.528161 1.551206,1.011232 0.315875,0.397149 0.441874,0.928757 0.523053,1.429673 0.126494,0.780543 0.07285,1.593395 -0.06975,2.371162 -0.173006,0.943673 -0.487806,1.87451 -0.941487,2.719865 -0.262742,0.489568 -0.594806,0.957237 -1.011233,1.325061 -0.363077,0.3207 -0.78768,0.605846 -1.255322,0.732272 -0.46549,0.125845 -1.4466,0 -1.4466,0 z"
         style="fill:#eab78c;fill-opacity:1;stroke:none;stroke-width:0.13948022px;stroke-linecap:butt;stroke-linejoin:miter;stroke-opacity:1" />
      <path
         style="fill:url(#linearGradient2993);fill-opacity:1;stroke:none;stroke-width:0.13948022px;stroke-linecap:butt;stroke-linejoin:miter;stroke-opacity:1"
         d="m 16.585629,27.225622 h 1.035587 c 0.153064,-0.01062 -0.649388,-5.481489 -0.493141,-7.742255 0.04049,-0.585901 0.883636,-1.683057 1.562056,-2.550688 1.213823,-1.552361 3.240663,-2.350084 5.213072,-2.667561 1.153363,-0.185643 2.341449,-0.07536 3.504443,0.0349 1.299425,0.123168 2.58139,0.403596 3.853144,0.697403 2.376991,0.549142 7.043747,1.987592 7.043747,1.987592 1.323522,0.312042 2.645173,0.617236 3.696227,-0.06974 l -0.48818,10.251796 h 1.080972 C 43.914147,23.488225 45.386467,17.080007 44.546281,13.149306 43.904352,10.146164 41.759342,7.9647427 37.397917,5.4430227 31.619893,2.102245 25.150465,1.4835115 18.323996,6.1055533 c -4.146134,2.807256 -4.266767,7.7697437 -4.184407,10.9143247 -0.128034,3.993835 1.629401,6.805462 2.44604,10.205772 z"
         id="path2983"
         inkscape:connector-curvature="0"
         sodipodi:nodetypes="ccsssaaccccssscc" />
      <path
         style="fill:#2c5aa0;fill-opacity:1;stroke:none;stroke-width:0.13948022px;stroke-linecap:butt;stroke-linejoin:miter;stroke-opacity:1"
         d="m 29.587027,49.135176 c -0.673769,-0.121124 -1.57427,2.570134 -1.865552,3.975186 -0.06553,0.316076 0.174351,0.906622 0.174351,0.906622 l 3.312658,0.01743 c 0,0 0.261144,-0.605732 0.191785,-0.854316 -0.271355,-0.972484 -0.862286,-3.87397 -1.813242,-4.044925 z"
         id="path2985"
         inkscape:connector-curvature="0"
         sodipodi:nodetypes="ssccss" />
      <path
         style="fill:#2c5aa0;fill-opacity:1;stroke:none;stroke-width:0.13008273px;stroke-linecap:butt;stroke-linejoin:miter;stroke-opacity:1"
         d="m 27.878466,53.951081 -1.5636,9.253984 c 2.316092,0.357347 4.49744,0.310472 6.62847,0.112635 l -1.71154,-9.323725 c -0.804708,-0.341065 -1.6383,-0.651978 -3.35333,-0.0429 z"
         id="path2987"
         inkscape:connector-curvature="0"
         sodipodi:nodetypes="cccccc" />
      <path
         style="opacity:0.30096011;fill:url(#linearGradient2995);fill-opacity:1;stroke:none;stroke-width:0.13523993px;stroke-linecap:butt;stroke-linejoin:miter;stroke-opacity:1"
         d="m 16.802469,26.239347 0.717177,0.220159 c -0.247754,-0.706738 -0.530606,-5.585867 0.09165,-7.092364 0.138962,-0.336439 0.625428,-1.61016 1.218641,-2.23397 1.416668,-1.489722 3.638091,-2.38775 5.546755,-2.696186 1.116086,-0.18035 2.26578,-0.07322 3.391186,0.0339 1.257436,0.119662 2.497971,0.392103 3.728627,0.677539 2.300171,0.533506 6.816115,1.930984 6.816115,1.930984 1.280753,0.303159 2.559692,0.599661 3.576781,-0.06775 0.282616,3.53998 0.291361,6.943027 -0.472407,9.959819 h 1.046041 C 43.132101,23.222764 43.10035,16.203841 42.478749,12.465304 41.988255,9.5153639 40.321624,7.5412675 37.435314,5.8661446 31.66611,2.5178864 25.969929,2.4467291 19.668193,6.5098079 15.68826,9.0758892 15.313927,13.287292 15.125875,16.521519 c 0.444446,3.737435 0.886357,6.41438 1.676605,9.717848 z"
         id="path2989"
         inkscape:connector-curvature="0"
         sodipodi:nodetypes="ccsssaaccccssscc" />
    </g>
  </g>
</svg>
